<svg xmlns="http://www.w3.org/2000/svg" xmlns:xlink="http://www.w3.org/1999/xlink" width="500" zoomAndPan="magnify" viewBox="0 0 375 374.999991" height="500" preserveAspectRatio="xMidYMid meet" version="1.0"><defs><g/></defs><rect x="-37.5" width="450" fill="#ffffff" y="-37.499999" height="449.999989" fill-opacity="1"/><rect x="-37.5" width="450" fill="#f6f5f5" y="-37.499999" height="449.999989" fill-opacity="1"/><g fill="#6d6e71" fill-opacity="1"><g transform="translate(41.731729, 188.613682)"><g><path d="M 9.953125 -9.953125 C 11.898438 -9.679688 13.289062 -9.113281 14.125 -8.25 C 14.957031 -7.394531 15.375 -6.363281 15.375 -5.15625 C 15.375 -4.144531 15.117188 -3.25 14.609375 -2.46875 C 14.097656 -1.6875 13.363281 -1.078125 12.40625 -0.640625 C 11.445312 -0.210938 10.3125 0 9 0 C 8.519531 0 8.109375 -0.0078125 7.765625 -0.03125 C 6.628906 -0.0625 5.515625 -0.078125 4.421875 -0.078125 C 2.960938 -0.078125 1.863281 -0.0507812 1.125 0 L 1.125 -0.53125 C 1.757812 -0.5625 2.222656 -0.628906 2.515625 -0.734375 C 2.804688 -0.847656 3.003906 -1.054688 3.109375 -1.359375 C 3.210938 -1.660156 3.265625 -2.148438 3.265625 -2.828125 L 3.265625 -16.015625 C 3.265625 -16.691406 3.210938 -17.179688 3.109375 -17.484375 C 3.003906 -17.785156 2.804688 -17.988281 2.515625 -18.09375 C 2.222656 -18.195312 1.757812 -18.269531 1.125 -18.3125 L 1.125 -18.84375 C 1.863281 -18.789062 2.941406 -18.765625 4.359375 -18.765625 L 7.234375 -18.78125 C 7.578125 -18.800781 7.957031 -18.8125 8.375 -18.8125 C 10.1875 -18.8125 11.578125 -18.429688 12.546875 -17.671875 C 13.515625 -16.910156 14 -15.898438 14 -14.640625 C 14 -13.609375 13.671875 -12.679688 13.015625 -11.859375 C 12.367188 -11.046875 11.347656 -10.425781 9.953125 -10 Z M 7.71875 -18.3125 C 7.164062 -18.3125 6.75 -18.25 6.46875 -18.125 C 6.195312 -18 6.007812 -17.773438 5.90625 -17.453125 C 5.800781 -17.140625 5.75 -16.660156 5.75 -16.015625 L 5.75 -10 L 7.53125 -10 C 8.988281 -10 10.003906 -10.394531 10.578125 -11.1875 C 11.148438 -11.976562 11.4375 -13.03125 11.4375 -14.34375 C 11.4375 -15.675781 11.144531 -16.671875 10.5625 -17.328125 C 9.976562 -17.984375 9.03125 -18.3125 7.71875 -18.3125 Z M 7.75 -0.609375 C 11.0625 -0.609375 12.71875 -2.160156 12.71875 -5.265625 C 12.71875 -6.671875 12.335938 -7.734375 11.578125 -8.453125 C 10.828125 -9.179688 9.628906 -9.546875 7.984375 -9.546875 L 5.75 -9.546875 L 5.75 -2.828125 C 5.75 -2.179688 5.800781 -1.707031 5.90625 -1.40625 C 6.007812 -1.101562 6.195312 -0.894531 6.46875 -0.78125 C 6.75 -0.664062 7.175781 -0.609375 7.75 -0.609375 Z M 7.75 -0.609375 "/></g></g></g><g fill="#6d6e71" fill-opacity="1"><g transform="translate(60.971815, 188.613682)"><g><path d="M 15.09375 -2.234375 C 15.507812 -1.128906 16.117188 -0.5625 16.921875 -0.53125 L 16.921875 0 C 16.210938 -0.0507812 15.265625 -0.078125 14.078125 -0.078125 C 12.546875 -0.078125 11.410156 -0.0507812 10.671875 0 L 10.671875 -0.53125 C 11.347656 -0.5625 11.832031 -0.644531 12.125 -0.78125 C 12.414062 -0.914062 12.5625 -1.160156 12.5625 -1.515625 C 12.5625 -1.816406 12.453125 -2.234375 12.234375 -2.765625 L 10.609375 -7.125 L 4.171875 -7.125 L 3.09375 -4.3125 C 2.726562 -3.351562 2.546875 -2.625 2.546875 -2.125 C 2.546875 -1.570312 2.738281 -1.171875 3.125 -0.921875 C 3.507812 -0.679688 4.09375 -0.550781 4.875 -0.53125 L 4.875 0 C 3.863281 -0.0507812 2.84375 -0.078125 1.8125 -0.078125 C 1.007812 -0.078125 0.34375 -0.0507812 -0.1875 0 L -0.1875 -0.53125 C 0.695312 -0.738281 1.398438 -1.507812 1.921875 -2.84375 L 8.171875 -18.96875 L 8.59375 -18.96875 Z M 10.40625 -7.65625 L 7.421875 -15.625 L 4.390625 -7.65625 Z M 10.40625 -7.65625 "/></g></g></g><g fill="#6d6e71" fill-opacity="1"><g transform="translate(80.398179, 188.613682)"><g><path d="M 7.90625 -18.3125 C 7.257812 -18.269531 6.789062 -18.195312 6.5 -18.09375 C 6.207031 -17.988281 6.007812 -17.785156 5.90625 -17.484375 C 5.800781 -17.179688 5.75 -16.691406 5.75 -16.015625 L 5.75 -2.828125 C 5.75 -2.148438 5.800781 -1.660156 5.90625 -1.359375 C 6.007812 -1.054688 6.207031 -0.851562 6.5 -0.75 C 6.789062 -0.65625 7.257812 -0.609375 7.90625 -0.609375 L 9.84375 -0.609375 C 10.945312 -0.609375 11.785156 -0.765625 12.359375 -1.078125 C 12.929688 -1.390625 13.347656 -1.890625 13.609375 -2.578125 C 13.878906 -3.273438 14.078125 -4.28125 14.203125 -5.59375 L 14.828125 -5.59375 C 14.765625 -5.039062 14.734375 -4.3125 14.734375 -3.40625 C 14.734375 -2.394531 14.796875 -1.257812 14.921875 0 C 13.722656 -0.0507812 11.691406 -0.078125 8.828125 -0.078125 C 5.421875 -0.078125 2.851562 -0.0507812 1.125 0 L 1.125 -0.53125 C 1.757812 -0.5625 2.222656 -0.628906 2.515625 -0.734375 C 2.804688 -0.847656 3.003906 -1.054688 3.109375 -1.359375 C 3.210938 -1.660156 3.265625 -2.148438 3.265625 -2.828125 L 3.265625 -16.015625 C 3.265625 -16.691406 3.210938 -17.179688 3.109375 -17.484375 C 3.003906 -17.785156 2.804688 -17.988281 2.515625 -18.09375 C 2.222656 -18.195312 1.757812 -18.269531 1.125 -18.3125 L 1.125 -18.84375 C 1.863281 -18.789062 3 -18.765625 4.53125 -18.765625 C 5.945312 -18.765625 7.070312 -18.789062 7.90625 -18.84375 Z M 7.90625 -18.3125 "/></g></g></g><g fill="#6d6e71" fill-opacity="1"><g transform="translate(98.70691, 188.613682)"><g><path d="M 15.09375 -2.234375 C 15.507812 -1.128906 16.117188 -0.5625 16.921875 -0.53125 L 16.921875 0 C 16.210938 -0.0507812 15.265625 -0.078125 14.078125 -0.078125 C 12.546875 -0.078125 11.410156 -0.0507812 10.671875 0 L 10.671875 -0.53125 C 11.347656 -0.5625 11.832031 -0.644531 12.125 -0.78125 C 12.414062 -0.914062 12.5625 -1.160156 12.5625 -1.515625 C 12.5625 -1.816406 12.453125 -2.234375 12.234375 -2.765625 L 10.609375 -7.125 L 4.171875 -7.125 L 3.09375 -4.3125 C 2.726562 -3.351562 2.546875 -2.625 2.546875 -2.125 C 2.546875 -1.570312 2.738281 -1.171875 3.125 -0.921875 C 3.507812 -0.679688 4.09375 -0.550781 4.875 -0.53125 L 4.875 0 C 3.863281 -0.0507812 2.84375 -0.078125 1.8125 -0.078125 C 1.007812 -0.078125 0.34375 -0.0507812 -0.1875 0 L -0.1875 -0.53125 C 0.695312 -0.738281 1.398438 -1.507812 1.921875 -2.84375 L 8.171875 -18.96875 L 8.59375 -18.96875 Z M 10.40625 -7.65625 L 7.421875 -15.625 L 4.390625 -7.65625 Z M 10.40625 -7.65625 "/></g></g></g><g fill="#6d6e71" fill-opacity="1"><g transform="translate(118.133274, 188.613682)"><g><path d="M 17.828125 -18.3125 C 17.203125 -18.269531 16.738281 -18.171875 16.4375 -18.015625 C 16.144531 -17.867188 15.941406 -17.625 15.828125 -17.28125 C 15.722656 -16.9375 15.671875 -16.425781 15.671875 -15.75 L 15.671875 0.140625 L 15.0625 0.140625 L 3.890625 -17.140625 L 3.890625 -3.09375 C 3.890625 -2.394531 3.945312 -1.875 4.0625 -1.53125 C 4.175781 -1.195312 4.398438 -0.953125 4.734375 -0.796875 C 5.066406 -0.648438 5.59375 -0.5625 6.3125 -0.53125 L 6.3125 0 C 5.664062 -0.0507812 4.757812 -0.078125 3.59375 -0.078125 C 2.53125 -0.078125 1.707031 -0.0507812 1.125 0 L 1.125 -0.53125 C 1.738281 -0.5625 2.195312 -0.648438 2.5 -0.796875 C 2.800781 -0.953125 3.003906 -1.203125 3.109375 -1.546875 C 3.210938 -1.898438 3.265625 -2.414062 3.265625 -3.09375 L 3.265625 -16.015625 C 3.265625 -16.691406 3.210938 -17.179688 3.109375 -17.484375 C 3.003906 -17.785156 2.804688 -17.988281 2.515625 -18.09375 C 2.222656 -18.195312 1.757812 -18.269531 1.125 -18.3125 L 1.125 -18.84375 C 1.707031 -18.789062 2.53125 -18.765625 3.59375 -18.765625 C 4.394531 -18.765625 5.085938 -18.789062 5.671875 -18.84375 L 15.0625 -4.359375 L 15.0625 -15.75 C 15.0625 -16.445312 15.003906 -16.960938 14.890625 -17.296875 C 14.773438 -17.628906 14.546875 -17.867188 14.203125 -18.015625 C 13.867188 -18.171875 13.347656 -18.269531 12.640625 -18.3125 L 12.640625 -18.84375 C 13.273438 -18.789062 14.179688 -18.765625 15.359375 -18.765625 C 16.421875 -18.765625 17.242188 -18.789062 17.828125 -18.84375 Z M 17.828125 -18.3125 "/></g></g></g><g fill="#6d6e71" fill-opacity="1"><g transform="translate(139.581995, 188.613682)"><g><path d="M 9.875 -19.21875 C 10.9375 -19.21875 11.835938 -19.066406 12.578125 -18.765625 C 13.328125 -18.460938 14.054688 -18.035156 14.765625 -17.484375 C 14.960938 -17.328125 15.132812 -17.25 15.28125 -17.25 C 15.632812 -17.25 15.863281 -17.78125 15.96875 -18.84375 L 16.578125 -18.84375 C 16.503906 -17.6875 16.46875 -15.644531 16.46875 -12.71875 L 15.859375 -12.71875 C 15.660156 -13.875 15.484375 -14.703125 15.328125 -15.203125 C 15.171875 -15.710938 14.90625 -16.195312 14.53125 -16.65625 C 14 -17.34375 13.316406 -17.859375 12.484375 -18.203125 C 11.660156 -18.554688 10.769531 -18.734375 9.8125 -18.734375 C 8.664062 -18.734375 7.660156 -18.347656 6.796875 -17.578125 C 5.941406 -16.816406 5.273438 -15.734375 4.796875 -14.328125 C 4.316406 -12.921875 4.078125 -11.265625 4.078125 -9.359375 C 4.078125 -7.429688 4.332031 -5.773438 4.84375 -4.390625 C 5.351562 -3.003906 6.066406 -1.953125 6.984375 -1.234375 C 7.898438 -0.515625 8.929688 -0.15625 10.078125 -0.15625 C 10.972656 -0.15625 11.835938 -0.320312 12.671875 -0.65625 C 13.503906 -1 14.160156 -1.507812 14.640625 -2.1875 C 14.992188 -2.675781 15.25 -3.203125 15.40625 -3.765625 C 15.5625 -4.335938 15.710938 -5.210938 15.859375 -6.390625 L 16.46875 -6.390625 C 16.46875 -3.335938 16.503906 -1.207031 16.578125 0 L 15.96875 0 C 15.914062 -0.5625 15.835938 -0.960938 15.734375 -1.203125 C 15.640625 -1.441406 15.503906 -1.5625 15.328125 -1.5625 C 15.179688 -1.5625 14.992188 -1.492188 14.765625 -1.359375 C 13.972656 -0.785156 13.210938 -0.351562 12.484375 -0.0625 C 11.753906 0.226562 10.875 0.375 9.84375 0.375 C 8.15625 0.375 6.675781 -0.00390625 5.40625 -0.765625 C 4.144531 -1.535156 3.160156 -2.640625 2.453125 -4.078125 C 1.753906 -5.523438 1.40625 -7.253906 1.40625 -9.265625 C 1.40625 -11.210938 1.765625 -12.9375 2.484375 -14.4375 C 3.203125 -15.945312 4.203125 -17.117188 5.484375 -17.953125 C 6.773438 -18.796875 8.238281 -19.21875 9.875 -19.21875 Z M 9.875 -19.21875 "/></g></g></g><g fill="#6d6e71" fill-opacity="1"><g transform="translate(160.551735, 188.613682)"><g><path d="M 14.734375 -3.40625 C 14.734375 -2.394531 14.796875 -1.257812 14.921875 0 C 13.722656 -0.0507812 11.691406 -0.078125 8.828125 -0.078125 C 5.421875 -0.078125 2.851562 -0.0507812 1.125 0 L 1.125 -0.53125 C 1.757812 -0.5625 2.222656 -0.628906 2.515625 -0.734375 C 2.804688 -0.847656 3.003906 -1.054688 3.109375 -1.359375 C 3.210938 -1.660156 3.265625 -2.148438 3.265625 -2.828125 L 3.265625 -16.015625 C 3.265625 -16.691406 3.210938 -17.179688 3.109375 -17.484375 C 3.003906 -17.785156 2.804688 -17.988281 2.515625 -18.09375 C 2.222656 -18.195312 1.757812 -18.269531 1.125 -18.3125 L 1.125 -18.84375 C 2.851562 -18.789062 5.421875 -18.765625 8.828125 -18.765625 C 11.441406 -18.765625 13.296875 -18.789062 14.390625 -18.84375 C 14.265625 -17.664062 14.203125 -16.617188 14.203125 -15.703125 C 14.203125 -15.003906 14.234375 -14.453125 14.296875 -14.046875 L 13.671875 -14.046875 C 13.546875 -15.203125 13.382812 -16.054688 13.1875 -16.609375 C 13 -17.171875 12.671875 -17.582031 12.203125 -17.84375 C 11.742188 -18.101562 11.046875 -18.234375 10.109375 -18.234375 L 7.90625 -18.234375 C 7.257812 -18.234375 6.789062 -18.179688 6.5 -18.078125 C 6.207031 -17.984375 6.007812 -17.785156 5.90625 -17.484375 C 5.800781 -17.179688 5.75 -16.691406 5.75 -16.015625 L 5.75 -9.734375 L 7.5 -9.734375 C 8.125 -9.734375 8.601562 -9.878906 8.9375 -10.171875 C 9.28125 -10.460938 9.507812 -10.804688 9.625 -11.203125 C 9.738281 -11.609375 9.832031 -12.113281 9.90625 -12.71875 L 9.984375 -13.25 L 10.59375 -13.25 C 10.539062 -12.507812 10.515625 -11.675781 10.515625 -10.75 L 10.515625 -9.46875 C 10.515625 -8.5625 10.566406 -7.300781 10.671875 -5.6875 L 10.0625 -5.6875 C 10.039062 -5.8125 9.984375 -6.242188 9.890625 -6.984375 C 9.804688 -7.722656 9.5625 -8.273438 9.15625 -8.640625 C 8.757812 -9.015625 8.207031 -9.203125 7.5 -9.203125 L 5.75 -9.203125 L 5.75 -2.828125 C 5.75 -2.148438 5.800781 -1.660156 5.90625 -1.359375 C 6.007812 -1.054688 6.207031 -0.851562 6.5 -0.75 C 6.789062 -0.65625 7.257812 -0.609375 7.90625 -0.609375 L 9.84375 -0.609375 C 10.945312 -0.609375 11.785156 -0.753906 12.359375 -1.046875 C 12.929688 -1.335938 13.347656 -1.804688 13.609375 -2.453125 C 13.878906 -3.109375 14.078125 -4.066406 14.203125 -5.328125 L 14.828125 -5.328125 C 14.765625 -4.847656 14.734375 -4.207031 14.734375 -3.40625 Z M 14.734375 -3.40625 "/></g></g></g><g fill="#6d6e71" fill-opacity="1"><g transform="translate(179.419277, 188.613682)"><g/></g></g><g fill="#6d6e71" fill-opacity="1"><g transform="translate(188.707217, 188.613682)"><g><path d="M 17.859375 -19.21875 C 18.972656 -19.21875 19.894531 -18.890625 20.625 -18.234375 C 21.363281 -17.585938 21.734375 -16.71875 21.734375 -15.625 C 21.734375 -14.769531 21.503906 -14.023438 21.046875 -13.390625 C 20.585938 -12.765625 19.976562 -12.265625 19.21875 -11.890625 C 18.539062 -11.578125 17.226562 -11.117188 15.28125 -10.515625 C 16.269531 -10.085938 17 -9.476562 17.46875 -8.6875 C 17.9375 -7.894531 18.171875 -6.992188 18.171875 -5.984375 C 18.171875 -4.890625 17.84375 -3.851562 17.1875 -2.875 C 16.53125 -1.894531 15.585938 -1.109375 14.359375 -0.515625 C 13.140625 0.078125 11.707031 0.375 10.0625 0.375 C 8.519531 0.375 7.085938 0.101562 5.765625 -0.4375 C 4.441406 -0.976562 3.390625 -1.75 2.609375 -2.75 C 1.828125 -3.75 1.4375 -4.914062 1.4375 -6.25 C 1.4375 -7.425781 1.722656 -8.414062 2.296875 -9.21875 C 2.878906 -10.03125 3.539062 -10.644531 4.28125 -11.0625 C 5.03125 -11.476562 5.722656 -11.765625 6.359375 -11.921875 C 5.492188 -12.296875 4.828125 -12.789062 4.359375 -13.40625 C 3.898438 -14.03125 3.671875 -14.679688 3.671875 -15.359375 C 3.671875 -15.941406 3.84375 -16.484375 4.1875 -16.984375 C 4.53125 -17.492188 5.046875 -17.90625 5.734375 -18.21875 C 6.421875 -18.53125 7.234375 -18.6875 8.171875 -18.6875 C 9.359375 -18.6875 10.28125 -18.414062 10.9375 -17.875 C 11.257812 -17.613281 11.503906 -17.316406 11.671875 -16.984375 C 11.835938 -16.660156 11.921875 -16.347656 11.921875 -16.046875 C 11.921875 -15.617188 11.769531 -15.273438 11.46875 -15.015625 C 11.164062 -14.765625 10.820312 -14.640625 10.4375 -14.640625 C 10.0625 -14.640625 9.734375 -14.757812 9.453125 -15 C 9.179688 -15.238281 9.046875 -15.5625 9.046875 -15.96875 C 9.046875 -16.351562 9.175781 -16.679688 9.4375 -16.953125 C 9.707031 -17.234375 10.046875 -17.390625 10.453125 -17.421875 C 10.367188 -17.660156 10.144531 -17.863281 9.78125 -18.03125 C 9.414062 -18.195312 8.96875 -18.28125 8.4375 -18.28125 C 7.507812 -18.28125 6.757812 -18 6.1875 -17.4375 C 5.625 -16.882812 5.34375 -16.109375 5.34375 -15.109375 C 5.34375 -13.921875 5.796875 -12.910156 6.703125 -12.078125 C 7.328125 -12.179688 7.878906 -12.234375 8.359375 -12.234375 C 8.671875 -12.234375 8.925781 -12.179688 9.125 -12.078125 C 9.320312 -11.972656 9.421875 -11.820312 9.421875 -11.625 C 9.421875 -11.46875 9.351562 -11.34375 9.21875 -11.25 C 9.082031 -11.164062 8.898438 -11.125 8.671875 -11.125 C 8.390625 -11.125 8.097656 -11.175781 7.796875 -11.28125 C 7.492188 -11.382812 7.140625 -11.523438 6.734375 -11.703125 C 4.421875 -11.015625 3.265625 -9.5625 3.265625 -7.34375 C 3.265625 -6.15625 3.578125 -5.125 4.203125 -4.25 C 4.828125 -3.382812 5.675781 -2.722656 6.75 -2.265625 C 7.832031 -1.816406 9.050781 -1.59375 10.40625 -1.59375 C 11.664062 -1.59375 12.832031 -1.789062 13.90625 -2.1875 C 14.976562 -2.59375 15.828125 -3.160156 16.453125 -3.890625 C 17.085938 -4.628906 17.40625 -5.488281 17.40625 -6.46875 C 17.40625 -7.175781 17.21875 -7.894531 16.84375 -8.625 C 16.46875 -9.351562 15.757812 -9.921875 14.71875 -10.328125 C 13.332031 -9.898438 12.3125 -9.5625 11.65625 -9.3125 C 10.90625 -9.03125 10.328125 -8.707031 9.921875 -8.34375 C 9.515625 -7.976562 9.3125 -7.53125 9.3125 -7 C 9.3125 -6.363281 9.570312 -5.847656 10.09375 -5.453125 C 10.625 -5.066406 11.179688 -4.875 11.765625 -4.875 C 12.066406 -4.875 12.394531 -4.925781 12.75 -5.03125 C 13.101562 -5.132812 13.304688 -5.273438 13.359375 -5.453125 C 13.023438 -5.523438 12.734375 -5.664062 12.484375 -5.875 C 12.234375 -6.09375 12.109375 -6.40625 12.109375 -6.8125 C 12.109375 -7.238281 12.242188 -7.578125 12.515625 -7.828125 C 12.796875 -8.078125 13.148438 -8.203125 13.578125 -8.203125 C 13.992188 -8.203125 14.332031 -8.066406 14.59375 -7.796875 C 14.851562 -7.523438 14.984375 -7.179688 14.984375 -6.765625 C 14.984375 -6.046875 14.65625 -5.484375 14 -5.078125 C 13.34375 -4.671875 12.613281 -4.46875 11.8125 -4.46875 C 10.945312 -4.46875 10.179688 -4.726562 9.515625 -5.25 C 8.847656 -5.78125 8.515625 -6.554688 8.515625 -7.578125 C 8.515625 -8.484375 8.816406 -9.25 9.421875 -9.875 C 10.035156 -10.507812 10.957031 -11.039062 12.1875 -11.46875 L 14.078125 -12.03125 C 15.140625 -12.332031 16.023438 -12.597656 16.734375 -12.828125 C 17.441406 -13.054688 18.09375 -13.304688 18.6875 -13.578125 C 19.53125 -13.960938 20.117188 -14.359375 20.453125 -14.765625 C 20.796875 -15.171875 20.96875 -15.625 20.96875 -16.125 C 20.96875 -16.875 20.660156 -17.507812 20.046875 -18.03125 C 19.429688 -18.550781 18.707031 -18.8125 17.875 -18.8125 C 17.4375 -18.8125 17.171875 -18.734375 17.078125 -18.578125 C 17.304688 -18.460938 17.488281 -18.285156 17.625 -18.046875 C 17.757812 -17.804688 17.828125 -17.570312 17.828125 -17.34375 C 17.828125 -16.976562 17.679688 -16.671875 17.390625 -16.421875 C 17.097656 -16.171875 16.75 -16.046875 16.34375 -16.046875 C 15.96875 -16.046875 15.632812 -16.160156 15.34375 -16.390625 C 15.0625 -16.617188 14.921875 -16.945312 14.921875 -17.375 C 14.921875 -18.007812 15.21875 -18.472656 15.8125 -18.765625 C 16.40625 -19.066406 17.085938 -19.21875 17.859375 -19.21875 Z M 17.859375 -19.21875 "/></g></g></g><g fill="#6d6e71" fill-opacity="1"><g transform="translate(213.641852, 188.613682)"><g/></g></g><g fill="#6d6e71" fill-opacity="1"><g transform="translate(222.929792, 188.613682)"><g><path d="M 6.8125 -19.125 C 7.59375 -19.125 8.207031 -19.039062 8.65625 -18.875 C 9.113281 -18.707031 9.582031 -18.460938 10.0625 -18.140625 C 10.445312 -17.898438 10.75 -17.78125 10.96875 -17.78125 C 11.125 -17.78125 11.242188 -17.867188 11.328125 -18.046875 C 11.421875 -18.234375 11.492188 -18.535156 11.546875 -18.953125 L 12.15625 -18.953125 C 12.070312 -17.921875 12.03125 -16.109375 12.03125 -13.515625 L 11.421875 -13.515625 C 11.304688 -14.953125 10.890625 -16.160156 10.171875 -17.140625 C 9.453125 -18.128906 8.410156 -18.625 7.046875 -18.625 C 6.085938 -18.625 5.304688 -18.332031 4.703125 -17.75 C 4.109375 -17.175781 3.8125 -16.441406 3.8125 -15.546875 C 3.8125 -14.867188 3.960938 -14.28125 4.265625 -13.78125 C 4.578125 -13.28125 4.972656 -12.851562 5.453125 -12.5 C 5.929688 -12.144531 6.613281 -11.695312 7.5 -11.15625 L 8.28125 -10.671875 C 9.394531 -9.972656 10.273438 -9.363281 10.921875 -8.84375 C 11.566406 -8.320312 12.082031 -7.722656 12.46875 -7.046875 C 12.863281 -6.378906 13.0625 -5.59375 13.0625 -4.6875 C 13.0625 -3.070312 12.53125 -1.820312 11.46875 -0.9375 C 10.40625 -0.0625 9.054688 0.375 7.421875 0.375 C 6.566406 0.375 5.867188 0.285156 5.328125 0.109375 C 4.796875 -0.0664062 4.28125 -0.304688 3.78125 -0.609375 C 3.382812 -0.859375 3.082031 -0.984375 2.875 -0.984375 C 2.71875 -0.984375 2.59375 -0.890625 2.5 -0.703125 C 2.414062 -0.515625 2.34375 -0.21875 2.28125 0.1875 L 1.671875 0.1875 C 1.742188 -0.789062 1.78125 -2.921875 1.78125 -6.203125 L 2.390625 -6.203125 C 2.515625 -4.410156 2.957031 -2.953125 3.71875 -1.828125 C 4.488281 -0.710938 5.660156 -0.15625 7.234375 -0.15625 C 8.191406 -0.15625 9.007812 -0.453125 9.6875 -1.046875 C 10.363281 -1.640625 10.703125 -2.523438 10.703125 -3.703125 C 10.703125 -4.691406 10.367188 -5.53125 9.703125 -6.21875 C 9.035156 -6.914062 7.984375 -7.695312 6.546875 -8.5625 C 5.492188 -9.207031 4.644531 -9.773438 4 -10.265625 C 3.351562 -10.765625 2.828125 -11.363281 2.421875 -12.0625 C 2.015625 -12.769531 1.8125 -13.59375 1.8125 -14.53125 C 1.8125 -16.019531 2.289062 -17.15625 3.25 -17.9375 C 4.207031 -18.726562 5.394531 -19.125 6.8125 -19.125 Z M 6.8125 -19.125 "/></g></g></g><g fill="#6d6e71" fill-opacity="1"><g transform="translate(239.961246, 188.613682)"><g><path d="M 15.75 -18.84375 C 15.625 -17.582031 15.5625 -16.445312 15.5625 -15.4375 C 15.5625 -14.550781 15.585938 -13.820312 15.640625 -13.25 L 15.03125 -13.25 C 14.894531 -14.613281 14.71875 -15.628906 14.5 -16.296875 C 14.289062 -16.960938 13.921875 -17.453125 13.390625 -17.765625 C 12.859375 -18.078125 12.039062 -18.234375 10.9375 -18.234375 L 9.5 -18.234375 L 9.5 -3.09375 C 9.5 -2.34375 9.566406 -1.796875 9.703125 -1.453125 C 9.847656 -1.117188 10.097656 -0.890625 10.453125 -0.765625 C 10.804688 -0.640625 11.382812 -0.5625 12.1875 -0.53125 L 12.1875 0 C 11.257812 -0.0507812 9.957031 -0.078125 8.28125 -0.078125 C 6.5 -0.078125 5.1875 -0.0507812 4.34375 0 L 4.34375 -0.53125 C 5.132812 -0.5625 5.707031 -0.640625 6.0625 -0.765625 C 6.414062 -0.890625 6.664062 -1.117188 6.8125 -1.453125 C 6.957031 -1.796875 7.03125 -2.34375 7.03125 -3.09375 L 7.03125 -18.234375 L 5.59375 -18.234375 C 4.488281 -18.234375 3.671875 -18.078125 3.140625 -17.765625 C 2.609375 -17.453125 2.234375 -16.960938 2.015625 -16.296875 C 1.804688 -15.628906 1.628906 -14.613281 1.484375 -13.25 L 0.875 -13.25 C 0.925781 -13.820312 0.953125 -14.550781 0.953125 -15.4375 C 0.953125 -16.445312 0.890625 -17.582031 0.765625 -18.84375 C 2.242188 -18.789062 4.75 -18.765625 8.28125 -18.765625 C 11.789062 -18.765625 14.28125 -18.789062 15.75 -18.84375 Z M 15.75 -18.84375 "/></g></g></g><g fill="#6d6e71" fill-opacity="1"><g transform="translate(259.148113, 188.613682)"><g><path d="M 17.421875 -18.3125 C 16.804688 -18.269531 16.347656 -18.171875 16.046875 -18.015625 C 15.742188 -17.867188 15.539062 -17.625 15.4375 -17.28125 C 15.332031 -16.9375 15.28125 -16.425781 15.28125 -15.75 L 15.28125 -7.75 C 15.28125 -6.46875 15.191406 -5.367188 15.015625 -4.453125 C 14.847656 -3.546875 14.570312 -2.765625 14.1875 -2.109375 C 13.738281 -1.335938 13.082031 -0.726562 12.21875 -0.28125 C 11.363281 0.15625 10.394531 0.375 9.3125 0.375 C 7.363281 0.375 5.875 -0.101562 4.84375 -1.0625 C 4.0625 -1.789062 3.535156 -2.613281 3.265625 -3.53125 C 3.003906 -4.457031 2.875 -5.832031 2.875 -7.65625 L 2.875 -16.015625 C 2.875 -16.691406 2.816406 -17.179688 2.703125 -17.484375 C 2.597656 -17.785156 2.398438 -17.988281 2.109375 -18.09375 C 1.816406 -18.195312 1.351562 -18.269531 0.71875 -18.3125 L 0.71875 -18.84375 C 1.46875 -18.789062 2.601562 -18.765625 4.125 -18.765625 C 5.5625 -18.765625 6.6875 -18.789062 7.5 -18.84375 L 7.5 -18.3125 C 6.863281 -18.269531 6.398438 -18.195312 6.109375 -18.09375 C 5.816406 -17.988281 5.613281 -17.785156 5.5 -17.484375 C 5.394531 -17.179688 5.34375 -16.691406 5.34375 -16.015625 L 5.34375 -7.21875 C 5.34375 -5.789062 5.441406 -4.609375 5.640625 -3.671875 C 5.835938 -2.734375 6.238281 -1.976562 6.84375 -1.40625 C 7.457031 -0.84375 8.359375 -0.5625 9.546875 -0.5625 C 11.429688 -0.5625 12.753906 -1.160156 13.515625 -2.359375 C 14.273438 -3.566406 14.65625 -5.265625 14.65625 -7.453125 L 14.65625 -15.75 C 14.65625 -16.707031 14.484375 -17.363281 14.140625 -17.71875 C 13.796875 -18.070312 13.160156 -18.269531 12.234375 -18.3125 L 12.234375 -18.84375 C 12.878906 -18.789062 13.785156 -18.765625 14.953125 -18.765625 C 16.015625 -18.765625 16.835938 -18.789062 17.421875 -18.84375 Z M 17.421875 -18.3125 "/></g></g></g><g fill="#6d6e71" fill-opacity="1"><g transform="translate(279.958186, 188.613682)"><g><path d="M 8.375 -18.84375 C 11.519531 -18.84375 13.875 -18.054688 15.4375 -16.484375 C 17 -14.910156 17.78125 -12.625 17.78125 -9.625 C 17.78125 -7.695312 17.394531 -6.003906 16.625 -4.546875 C 15.863281 -3.097656 14.757812 -1.976562 13.3125 -1.1875 C 11.875 -0.394531 10.148438 0 8.140625 0 L 6.59375 -0.03125 C 5.601562 -0.0625 4.878906 -0.078125 4.421875 -0.078125 C 2.960938 -0.078125 1.863281 -0.0507812 1.125 0 L 1.125 -0.53125 C 1.757812 -0.5625 2.222656 -0.628906 2.515625 -0.734375 C 2.804688 -0.847656 3.003906 -1.054688 3.109375 -1.359375 C 3.210938 -1.660156 3.265625 -2.148438 3.265625 -2.828125 L 3.265625 -16.015625 C 3.265625 -16.691406 3.210938 -17.179688 3.109375 -17.484375 C 3.003906 -17.785156 2.804688 -17.988281 2.515625 -18.09375 C 2.222656 -18.195312 1.757812 -18.269531 1.125 -18.3125 L 1.125 -18.84375 C 1.738281 -18.789062 2.597656 -18.765625 3.703125 -18.765625 L 5.953125 -18.78125 C 7.160156 -18.820312 7.96875 -18.84375 8.375 -18.84375 Z M 7.71875 -18.359375 C 7.164062 -18.359375 6.75 -18.296875 6.46875 -18.171875 C 6.195312 -18.046875 6.007812 -17.820312 5.90625 -17.5 C 5.800781 -17.1875 5.75 -16.710938 5.75 -16.078125 L 5.75 -2.765625 C 5.75 -2.128906 5.800781 -1.648438 5.90625 -1.328125 C 6.007812 -1.003906 6.195312 -0.78125 6.46875 -0.65625 C 6.75 -0.539062 7.175781 -0.484375 7.75 -0.484375 C 9.625 -0.484375 11.101562 -0.820312 12.1875 -1.5 C 13.269531 -2.1875 14.023438 -3.1875 14.453125 -4.5 C 14.890625 -5.8125 15.109375 -7.488281 15.109375 -9.53125 C 15.109375 -11.570312 14.867188 -13.234375 14.390625 -14.515625 C 13.910156 -15.796875 13.132812 -16.753906 12.0625 -17.390625 C 10.988281 -18.035156 9.539062 -18.359375 7.71875 -18.359375 Z M 7.71875 -18.359375 "/></g></g></g><g fill="#6d6e71" fill-opacity="1"><g transform="translate(301.859279, 188.613682)"><g><path d="M 7.90625 -18.3125 C 7.257812 -18.269531 6.789062 -18.195312 6.5 -18.09375 C 6.207031 -17.988281 6.007812 -17.785156 5.90625 -17.484375 C 5.800781 -17.179688 5.75 -16.691406 5.75 -16.015625 L 5.75 -2.828125 C 5.75 -2.148438 5.800781 -1.660156 5.90625 -1.359375 C 6.007812 -1.054688 6.207031 -0.847656 6.5 -0.734375 C 6.789062 -0.628906 7.257812 -0.5625 7.90625 -0.53125 L 7.90625 0 C 7.082031 -0.0507812 5.957031 -0.078125 4.53125 -0.078125 C 3 -0.078125 1.863281 -0.0507812 1.125 0 L 1.125 -0.53125 C 1.757812 -0.5625 2.222656 -0.628906 2.515625 -0.734375 C 2.804688 -0.847656 3.003906 -1.054688 3.109375 -1.359375 C 3.210938 -1.660156 3.265625 -2.148438 3.265625 -2.828125 L 3.265625 -16.015625 C 3.265625 -16.691406 3.210938 -17.179688 3.109375 -17.484375 C 3.003906 -17.785156 2.804688 -17.988281 2.515625 -18.09375 C 2.222656 -18.195312 1.757812 -18.269531 1.125 -18.3125 L 1.125 -18.84375 C 1.863281 -18.789062 3 -18.765625 4.53125 -18.765625 C 5.945312 -18.765625 7.070312 -18.789062 7.90625 -18.84375 Z M 7.90625 -18.3125 "/></g></g></g><g fill="#6d6e71" fill-opacity="1"><g transform="translate(313.542114, 188.613682)"><g><path d="M 9.875 -19.21875 C 11.5625 -19.21875 13.035156 -18.832031 14.296875 -18.0625 C 15.566406 -17.300781 16.550781 -16.195312 17.25 -14.75 C 17.957031 -13.3125 18.3125 -11.585938 18.3125 -9.578125 C 18.3125 -7.628906 17.953125 -5.898438 17.234375 -4.390625 C 16.515625 -2.878906 15.507812 -1.707031 14.21875 -0.875 C 12.9375 -0.0390625 11.476562 0.375 9.84375 0.375 C 8.15625 0.375 6.675781 -0.00390625 5.40625 -0.765625 C 4.144531 -1.535156 3.160156 -2.640625 2.453125 -4.078125 C 1.753906 -5.523438 1.40625 -7.253906 1.40625 -9.265625 C 1.40625 -11.210938 1.765625 -12.9375 2.484375 -14.4375 C 3.203125 -15.945312 4.203125 -17.117188 5.484375 -17.953125 C 6.773438 -18.796875 8.238281 -19.21875 9.875 -19.21875 Z M 9.765625 -18.734375 C 8.628906 -18.734375 7.628906 -18.335938 6.765625 -17.546875 C 5.910156 -16.753906 5.25 -15.648438 4.78125 -14.234375 C 4.3125 -12.816406 4.078125 -11.191406 4.078125 -9.359375 C 4.078125 -7.515625 4.335938 -5.890625 4.859375 -4.484375 C 5.378906 -3.085938 6.082031 -2.007812 6.96875 -1.25 C 7.851562 -0.488281 8.847656 -0.109375 9.953125 -0.109375 C 11.085938 -0.109375 12.082031 -0.5 12.9375 -1.28125 C 13.800781 -2.070312 14.46875 -3.175781 14.9375 -4.59375 C 15.40625 -6.019531 15.640625 -7.644531 15.640625 -9.46875 C 15.640625 -11.3125 15.378906 -12.929688 14.859375 -14.328125 C 14.335938 -15.734375 13.632812 -16.816406 12.75 -17.578125 C 11.863281 -18.347656 10.867188 -18.734375 9.765625 -18.734375 Z M 9.765625 -18.734375 "/></g></g></g><g fill="#6d6e71" fill-opacity="1"><g transform="translate(143.493662, 224.547505)"><g><path d="M 4.59375 -5.0625 L 2.75 -5.0625 L 2.75 0 L 1.96875 0 L 1.96875 -5.0625 L 0.125 -5.0625 L 0.125 -5.71875 L 4.59375 -5.71875 Z M 4.59375 -5.0625 "/></g></g></g><g fill="#6d6e71" fill-opacity="1"><g transform="translate(151.403975, 224.547505)"><g><path d="M 6.015625 -2.859375 C 6.015625 -2.429688 5.945312 -2.035156 5.8125 -1.671875 C 5.675781 -1.316406 5.484375 -1.007812 5.234375 -0.75 C 4.984375 -0.5 4.6875 -0.300781 4.34375 -0.15625 C 4 -0.0078125 3.613281 0.0625 3.1875 0.0625 C 2.769531 0.0625 2.390625 -0.0078125 2.046875 -0.15625 C 1.703125 -0.300781 1.40625 -0.5 1.15625 -0.75 C 0.90625 -1.007812 0.710938 -1.316406 0.578125 -1.671875 C 0.441406 -2.035156 0.375 -2.429688 0.375 -2.859375 C 0.375 -3.285156 0.441406 -3.675781 0.578125 -4.03125 C 0.710938 -4.394531 0.90625 -4.707031 1.15625 -4.96875 C 1.40625 -5.226562 1.703125 -5.425781 2.046875 -5.5625 C 2.390625 -5.707031 2.769531 -5.78125 3.1875 -5.78125 C 3.613281 -5.78125 4 -5.707031 4.34375 -5.5625 C 4.6875 -5.425781 4.984375 -5.226562 5.234375 -4.96875 C 5.484375 -4.707031 5.675781 -4.394531 5.8125 -4.03125 C 5.945312 -3.675781 6.015625 -3.285156 6.015625 -2.859375 Z M 5.21875 -2.859375 C 5.21875 -3.210938 5.171875 -3.523438 5.078125 -3.796875 C 4.984375 -4.078125 4.847656 -4.3125 4.671875 -4.5 C 4.492188 -4.695312 4.28125 -4.847656 4.03125 -4.953125 C 3.78125 -5.054688 3.5 -5.109375 3.1875 -5.109375 C 2.882812 -5.109375 2.609375 -5.054688 2.359375 -4.953125 C 2.109375 -4.847656 1.894531 -4.695312 1.71875 -4.5 C 1.539062 -4.3125 1.40625 -4.078125 1.3125 -3.796875 C 1.21875 -3.523438 1.171875 -3.210938 1.171875 -2.859375 C 1.171875 -2.503906 1.21875 -2.1875 1.3125 -1.90625 C 1.40625 -1.632812 1.539062 -1.398438 1.71875 -1.203125 C 1.894531 -1.015625 2.109375 -0.867188 2.359375 -0.765625 C 2.609375 -0.660156 2.882812 -0.609375 3.1875 -0.609375 C 3.5 -0.609375 3.78125 -0.660156 4.03125 -0.765625 C 4.28125 -0.867188 4.492188 -1.015625 4.671875 -1.203125 C 4.847656 -1.398438 4.984375 -1.632812 5.078125 -1.90625 C 5.171875 -2.1875 5.21875 -2.503906 5.21875 -2.859375 Z M 5.21875 -2.859375 "/></g></g></g><g fill="#6d6e71" fill-opacity="1"><g transform="translate(160.991393, 224.547505)"><g><path d="M 2.3125 -2.953125 C 2.539062 -2.953125 2.738281 -2.976562 2.90625 -3.03125 C 3.082031 -3.082031 3.226562 -3.15625 3.34375 -3.25 C 3.457031 -3.351562 3.539062 -3.472656 3.59375 -3.609375 C 3.65625 -3.753906 3.6875 -3.910156 3.6875 -4.078125 C 3.6875 -4.421875 3.570312 -4.675781 3.34375 -4.84375 C 3.125 -5.019531 2.789062 -5.109375 2.34375 -5.109375 L 1.5 -5.109375 L 1.5 -2.953125 Z M 4.953125 0 L 4.265625 0 C 4.128906 0 4.023438 -0.0507812 3.953125 -0.15625 L 2.46875 -2.203125 C 2.425781 -2.265625 2.378906 -2.3125 2.328125 -2.34375 C 2.273438 -2.375 2.195312 -2.390625 2.09375 -2.390625 L 1.5 -2.390625 L 1.5 0 L 0.734375 0 L 0.734375 -5.71875 L 2.34375 -5.71875 C 2.707031 -5.71875 3.019531 -5.679688 3.28125 -5.609375 C 3.550781 -5.535156 3.769531 -5.425781 3.9375 -5.28125 C 4.113281 -5.144531 4.238281 -4.976562 4.3125 -4.78125 C 4.394531 -4.59375 4.4375 -4.378906 4.4375 -4.140625 C 4.4375 -3.929688 4.40625 -3.738281 4.34375 -3.5625 C 4.28125 -3.394531 4.1875 -3.238281 4.0625 -3.09375 C 3.945312 -2.957031 3.800781 -2.835938 3.625 -2.734375 C 3.445312 -2.640625 3.25 -2.566406 3.03125 -2.515625 C 3.132812 -2.460938 3.222656 -2.378906 3.296875 -2.265625 Z M 4.953125 0 "/></g></g></g><g fill="#6d6e71" fill-opacity="1"><g transform="translate(169.189212, 224.547505)"><g><path d="M 6.015625 -2.859375 C 6.015625 -2.429688 5.945312 -2.035156 5.8125 -1.671875 C 5.675781 -1.316406 5.484375 -1.007812 5.234375 -0.75 C 4.984375 -0.5 4.6875 -0.300781 4.34375 -0.15625 C 4 -0.0078125 3.613281 0.0625 3.1875 0.0625 C 2.769531 0.0625 2.390625 -0.0078125 2.046875 -0.15625 C 1.703125 -0.300781 1.40625 -0.5 1.15625 -0.75 C 0.90625 -1.007812 0.710938 -1.316406 0.578125 -1.671875 C 0.441406 -2.035156 0.375 -2.429688 0.375 -2.859375 C 0.375 -3.285156 0.441406 -3.675781 0.578125 -4.03125 C 0.710938 -4.394531 0.90625 -4.707031 1.15625 -4.96875 C 1.40625 -5.226562 1.703125 -5.425781 2.046875 -5.5625 C 2.390625 -5.707031 2.769531 -5.78125 3.1875 -5.78125 C 3.613281 -5.78125 4 -5.707031 4.34375 -5.5625 C 4.6875 -5.425781 4.984375 -5.226562 5.234375 -4.96875 C 5.484375 -4.707031 5.675781 -4.394531 5.8125 -4.03125 C 5.945312 -3.675781 6.015625 -3.285156 6.015625 -2.859375 Z M 5.21875 -2.859375 C 5.21875 -3.210938 5.171875 -3.523438 5.078125 -3.796875 C 4.984375 -4.078125 4.847656 -4.3125 4.671875 -4.5 C 4.492188 -4.695312 4.28125 -4.847656 4.03125 -4.953125 C 3.78125 -5.054688 3.5 -5.109375 3.1875 -5.109375 C 2.882812 -5.109375 2.609375 -5.054688 2.359375 -4.953125 C 2.109375 -4.847656 1.894531 -4.695312 1.71875 -4.5 C 1.539062 -4.3125 1.40625 -4.078125 1.3125 -3.796875 C 1.21875 -3.523438 1.171875 -3.210938 1.171875 -2.859375 C 1.171875 -2.503906 1.21875 -2.1875 1.3125 -1.90625 C 1.40625 -1.632812 1.539062 -1.398438 1.71875 -1.203125 C 1.894531 -1.015625 2.109375 -0.867188 2.359375 -0.765625 C 2.609375 -0.660156 2.882812 -0.609375 3.1875 -0.609375 C 3.5 -0.609375 3.78125 -0.660156 4.03125 -0.765625 C 4.28125 -0.867188 4.492188 -1.015625 4.671875 -1.203125 C 4.847656 -1.398438 4.984375 -1.632812 5.078125 -1.90625 C 5.171875 -2.1875 5.21875 -2.503906 5.21875 -2.859375 Z M 5.21875 -2.859375 "/></g></g></g><g fill="#6d6e71" fill-opacity="1"><g transform="translate(178.776629, 224.547505)"><g><path d="M 5.359375 -5.71875 L 5.359375 0 L 4.984375 0 C 4.921875 0 4.867188 -0.0078125 4.828125 -0.03125 C 4.785156 -0.0507812 4.742188 -0.0859375 4.703125 -0.140625 L 1.390625 -4.453125 C 1.398438 -4.378906 1.40625 -4.3125 1.40625 -4.25 C 1.40625 -4.1875 1.40625 -4.128906 1.40625 -4.078125 L 1.40625 0 L 0.734375 0 L 0.734375 -5.71875 L 1.125 -5.71875 C 1.164062 -5.71875 1.195312 -5.710938 1.21875 -5.703125 C 1.238281 -5.703125 1.257812 -5.695312 1.28125 -5.6875 C 1.300781 -5.6875 1.316406 -5.675781 1.328125 -5.65625 C 1.347656 -5.632812 1.367188 -5.613281 1.390625 -5.59375 L 4.703125 -1.28125 C 4.703125 -1.351562 4.695312 -1.421875 4.6875 -1.484375 C 4.6875 -1.546875 4.6875 -1.609375 4.6875 -1.671875 L 4.6875 -5.71875 Z M 5.359375 -5.71875 "/></g></g></g><g fill="#6d6e71" fill-opacity="1"><g transform="translate(188.068558, 224.547505)"><g><path d="M 4.59375 -5.0625 L 2.75 -5.0625 L 2.75 0 L 1.96875 0 L 1.96875 -5.0625 L 0.125 -5.0625 L 0.125 -5.71875 L 4.59375 -5.71875 Z M 4.59375 -5.0625 "/></g></g></g><g fill="#6d6e71" fill-opacity="1"><g transform="translate(195.978873, 224.547505)"><g><path d="M 6.015625 -2.859375 C 6.015625 -2.429688 5.945312 -2.035156 5.8125 -1.671875 C 5.675781 -1.316406 5.484375 -1.007812 5.234375 -0.75 C 4.984375 -0.5 4.6875 -0.300781 4.34375 -0.15625 C 4 -0.0078125 3.613281 0.0625 3.1875 0.0625 C 2.769531 0.0625 2.390625 -0.0078125 2.046875 -0.15625 C 1.703125 -0.300781 1.40625 -0.5 1.15625 -0.75 C 0.90625 -1.007812 0.710938 -1.316406 0.578125 -1.671875 C 0.441406 -2.035156 0.375 -2.429688 0.375 -2.859375 C 0.375 -3.285156 0.441406 -3.675781 0.578125 -4.03125 C 0.710938 -4.394531 0.90625 -4.707031 1.15625 -4.96875 C 1.40625 -5.226562 1.703125 -5.425781 2.046875 -5.5625 C 2.390625 -5.707031 2.769531 -5.78125 3.1875 -5.78125 C 3.613281 -5.78125 4 -5.707031 4.34375 -5.5625 C 4.6875 -5.425781 4.984375 -5.226562 5.234375 -4.96875 C 5.484375 -4.707031 5.675781 -4.394531 5.8125 -4.03125 C 5.945312 -3.675781 6.015625 -3.285156 6.015625 -2.859375 Z M 5.21875 -2.859375 C 5.21875 -3.210938 5.171875 -3.523438 5.078125 -3.796875 C 4.984375 -4.078125 4.847656 -4.3125 4.671875 -4.5 C 4.492188 -4.695312 4.28125 -4.847656 4.03125 -4.953125 C 3.78125 -5.054688 3.5 -5.109375 3.1875 -5.109375 C 2.882812 -5.109375 2.609375 -5.054688 2.359375 -4.953125 C 2.109375 -4.847656 1.894531 -4.695312 1.71875 -4.5 C 1.539062 -4.3125 1.40625 -4.078125 1.3125 -3.796875 C 1.21875 -3.523438 1.171875 -3.210938 1.171875 -2.859375 C 1.171875 -2.503906 1.21875 -2.1875 1.3125 -1.90625 C 1.40625 -1.632812 1.539062 -1.398438 1.71875 -1.203125 C 1.894531 -1.015625 2.109375 -0.867188 2.359375 -0.765625 C 2.609375 -0.660156 2.882812 -0.609375 3.1875 -0.609375 C 3.5 -0.609375 3.78125 -0.660156 4.03125 -0.765625 C 4.28125 -0.867188 4.492188 -1.015625 4.671875 -1.203125 C 4.847656 -1.398438 4.984375 -1.632812 5.078125 -1.90625 C 5.171875 -2.1875 5.21875 -2.503906 5.21875 -2.859375 Z M 5.21875 -2.859375 "/></g></g></g><g fill="#6d6e71" fill-opacity="1"><g transform="translate(205.566293, 224.547505)"><g><path d="M 0.515625 0.96875 C 0.492188 0.945312 0.476562 0.925781 0.46875 0.90625 C 0.46875 0.894531 0.46875 0.878906 0.46875 0.859375 C 0.46875 0.835938 0.472656 0.816406 0.484375 0.796875 C 0.492188 0.773438 0.503906 0.757812 0.515625 0.75 C 0.546875 0.71875 0.582031 0.675781 0.625 0.625 C 0.664062 0.582031 0.707031 0.523438 0.75 0.453125 C 0.789062 0.390625 0.828125 0.316406 0.859375 0.234375 C 0.898438 0.160156 0.929688 0.0820312 0.953125 0 C 0.941406 0 0.929688 0 0.921875 0 C 0.910156 0 0.898438 0 0.890625 0 C 0.753906 0 0.640625 -0.046875 0.546875 -0.140625 C 0.460938 -0.234375 0.421875 -0.347656 0.421875 -0.484375 C 0.421875 -0.609375 0.460938 -0.710938 0.546875 -0.796875 C 0.640625 -0.890625 0.757812 -0.9375 0.90625 -0.9375 C 0.976562 -0.9375 1.046875 -0.921875 1.109375 -0.890625 C 1.171875 -0.867188 1.222656 -0.832031 1.265625 -0.78125 C 1.304688 -0.726562 1.335938 -0.664062 1.359375 -0.59375 C 1.378906 -0.53125 1.390625 -0.457031 1.390625 -0.375 C 1.390625 -0.257812 1.375 -0.132812 1.34375 0 C 1.3125 0.125 1.257812 0.25 1.1875 0.375 C 1.125 0.507812 1.046875 0.632812 0.953125 0.75 C 0.859375 0.875 0.753906 0.984375 0.640625 1.078125 Z M 0.515625 0.96875 "/></g></g></g><g fill="#6d6e71" fill-opacity="1"><g transform="translate(210.573621, 224.547505)"><g/></g></g><g fill="#6d6e71" fill-opacity="1"><g transform="translate(215.812553, 224.547505)"><g><path d="M 6.015625 -2.859375 C 6.015625 -2.429688 5.945312 -2.035156 5.8125 -1.671875 C 5.675781 -1.316406 5.484375 -1.007812 5.234375 -0.75 C 4.984375 -0.5 4.6875 -0.300781 4.34375 -0.15625 C 4 -0.0078125 3.613281 0.0625 3.1875 0.0625 C 2.769531 0.0625 2.390625 -0.0078125 2.046875 -0.15625 C 1.703125 -0.300781 1.40625 -0.5 1.15625 -0.75 C 0.90625 -1.007812 0.710938 -1.316406 0.578125 -1.671875 C 0.441406 -2.035156 0.375 -2.429688 0.375 -2.859375 C 0.375 -3.285156 0.441406 -3.675781 0.578125 -4.03125 C 0.710938 -4.394531 0.90625 -4.707031 1.15625 -4.96875 C 1.40625 -5.226562 1.703125 -5.425781 2.046875 -5.5625 C 2.390625 -5.707031 2.769531 -5.78125 3.1875 -5.78125 C 3.613281 -5.78125 4 -5.707031 4.34375 -5.5625 C 4.6875 -5.425781 4.984375 -5.226562 5.234375 -4.96875 C 5.484375 -4.707031 5.675781 -4.394531 5.8125 -4.03125 C 5.945312 -3.675781 6.015625 -3.285156 6.015625 -2.859375 Z M 5.21875 -2.859375 C 5.21875 -3.210938 5.171875 -3.523438 5.078125 -3.796875 C 4.984375 -4.078125 4.847656 -4.3125 4.671875 -4.5 C 4.492188 -4.695312 4.28125 -4.847656 4.03125 -4.953125 C 3.78125 -5.054688 3.5 -5.109375 3.1875 -5.109375 C 2.882812 -5.109375 2.609375 -5.054688 2.359375 -4.953125 C 2.109375 -4.847656 1.894531 -4.695312 1.71875 -4.5 C 1.539062 -4.3125 1.40625 -4.078125 1.3125 -3.796875 C 1.21875 -3.523438 1.171875 -3.210938 1.171875 -2.859375 C 1.171875 -2.503906 1.21875 -2.1875 1.3125 -1.90625 C 1.40625 -1.632812 1.539062 -1.398438 1.71875 -1.203125 C 1.894531 -1.015625 2.109375 -0.867188 2.359375 -0.765625 C 2.609375 -0.660156 2.882812 -0.609375 3.1875 -0.609375 C 3.5 -0.609375 3.78125 -0.660156 4.03125 -0.765625 C 4.28125 -0.867188 4.492188 -1.015625 4.671875 -1.203125 C 4.847656 -1.398438 4.984375 -1.632812 5.078125 -1.90625 C 5.171875 -2.1875 5.21875 -2.503906 5.21875 -2.859375 Z M 5.21875 -2.859375 "/></g></g></g><g fill="#6d6e71" fill-opacity="1"><g transform="translate(225.399973, 224.547505)"><g><path d="M 5.359375 -5.71875 L 5.359375 0 L 4.984375 0 C 4.921875 0 4.867188 -0.0078125 4.828125 -0.03125 C 4.785156 -0.0507812 4.742188 -0.0859375 4.703125 -0.140625 L 1.390625 -4.453125 C 1.398438 -4.378906 1.40625 -4.3125 1.40625 -4.25 C 1.40625 -4.1875 1.40625 -4.128906 1.40625 -4.078125 L 1.40625 0 L 0.734375 0 L 0.734375 -5.71875 L 1.125 -5.71875 C 1.164062 -5.71875 1.195312 -5.710938 1.21875 -5.703125 C 1.238281 -5.703125 1.257812 -5.695312 1.28125 -5.6875 C 1.300781 -5.6875 1.316406 -5.675781 1.328125 -5.65625 C 1.347656 -5.632812 1.367188 -5.613281 1.390625 -5.59375 L 4.703125 -1.28125 C 4.703125 -1.351562 4.695312 -1.421875 4.6875 -1.484375 C 4.6875 -1.546875 4.6875 -1.609375 4.6875 -1.671875 L 4.6875 -5.71875 Z M 5.359375 -5.71875 "/></g></g></g><path stroke-linecap="round" transform="matrix(0.75, 0, 0, 0.75, 49.626796, 204.81567)" fill="none" stroke-linejoin="miter" d="M 0.497606 0.500982 L 367.164297 0.500982 " stroke="#6d6e71" stroke-width="1" stroke-opacity="1" stroke-miterlimit="4"/><path stroke-linecap="round" transform="matrix(0.75, 0, 0, 0.75, 49.626796, 152.905684)" fill="none" stroke-linejoin="miter" d="M 0.497606 0.500754 L 367.164297 0.500754 " stroke="#6d6e71" stroke-width="1" stroke-opacity="1" stroke-miterlimit="4"/></svg>